name Walk8.mot
datacolumns 19
datarows 17
range 1.35100000 1.36700000
endheader

                time	   L_ground_force_vx	   L_ground_force_vy	   L_ground_force_vz	   L_ground_force_px	   L_ground_force_py	   L_ground_force_pz	   R_ground_force_vx	   R_ground_force_vy	   R_ground_force_vz	   R_ground_force_px	   R_ground_force_py	   R_ground_force_pz	   L_ground_torque_x	   L_ground_torque_y	   L_ground_torque_z	   R_ground_torque_x	   R_ground_torque_y	   R_ground_torque_z	
          1.35100000	         -7.80369117	         97.91016102	        -10.58459245	          0.00244894	          0.00000000	          0.00154049	         -0.00000019	          0.00000165	          0.00000007	          0.00000000	          0.00000000	          0.00000000	          0.00000000	          0.08384227	          0.00000000	          0.00000000	         -0.00000003	          0.00000000	
          1.35200000	         -8.93217748	        108.00433246	        -11.41044767	         -0.01642059	          0.00000000	         -0.00067284	         -0.00000021	          0.00000172	          0.00000007	          0.00000000	          0.00000000	          0.00000000	          0.00000000	          0.09017659	          0.00000000	          0.00000000	         -0.00000003	          0.00000000	
          1.35300000	        -10.12166149	        118.33061015	        -12.25292125	         -0.03522070	          0.00000000	         -0.00287886	         -0.00000022	          0.00000179	          0.00000007	          0.00000000	          0.00000000	          0.00000000	          0.00000000	          0.09666203	          0.00000000	          0.00000000	         -0.00000003	          0.00000000	
          1.35400000	        -11.37302900	        128.87300506	        -13.11031267	         -0.05389547	          0.00000000	         -0.00507116	         -0.00000023	          0.00000186	          0.00000008	          0.00000000	          0.00000000	          0.00000000	          0.00000000	          0.10328683	          0.00000000	          0.00000000	         -0.00000003	          0.00000000	
          1.35500000	        -12.68700798	        139.61369073	        -13.98073165	         -0.07238884	          0.00000000	         -0.00724336	         -0.00000024	          0.00000193	          0.00000008	          0.00000000	          0.00000000	          0.00000000	          0.00000000	          0.11003774	          0.00000000	          0.00000000	         -0.00000003	          0.00000000	
          1.35600000	        -14.06415206	        150.53290377	        -14.86209208	         -0.09064614	          0.00000000	         -0.00938924	         -0.00000025	          0.00000200	          0.00000008	          0.00000000	          0.00000000	          0.00000000	          0.00000000	          0.11690002	          0.00000000	          0.00000000	         -0.00000003	          0.00000000	
          1.35700000	        -15.50482655	        161.60895968	        -15.75211214	         -0.10861635	          0.00000000	         -0.01150304	         -0.00000026	          0.00000206	          0.00000008	          0.00000000	          0.00000000	          0.00000000	          0.00000000	          0.12385738	          0.00000000	          0.00000000	         -0.00000003	          0.00000000	
          1.35800000	        -17.00919529	        172.81843060	        -16.64831580	         -0.12625357	          0.00000000	         -0.01357964	         -0.00000027	          0.00000213	          0.00000009	          0.00000000	          0.00000000	          0.00000000	          0.00000000	          0.13089203	          0.00000000	          0.00000000	         -0.00000003	          0.00000000	
          1.35900000	        -18.57720605	        184.13650115	        -17.54803107	         -0.14351709	          0.00000000	         -0.01561452	         -0.00000028	          0.00000219	          0.00000009	          0.00000000	          0.00000000	          0.00000000	          0.00000000	          0.13798449	          0.00000000	          0.00000000	         -0.00000003	          0.00000000	
          1.36000000	        -20.20857155	        195.53749383	        -18.44838519	         -0.16037107	          0.00000000	         -0.01760381	         -0.00000029	          0.00000224	          0.00000009	          0.00000000	          0.00000000	          0.00000000	          0.00000000	          0.14511363	          0.00000000	          0.00000000	         -0.00000003	          0.00000000	
          1.36100000	        -21.90274312	        206.99551989	        -19.34629883	         -0.17678427	          0.00000000	         -0.01954419	         -0.00000031	          0.00000229	          0.00000009	          0.00000000	          0.00000000	          0.00000000	          0.00000000	          0.15225661	          0.00000000	          0.00000000	         -0.00000003	          0.00000000	
          1.36200000	        -23.65887554	        218.48517314	        -20.23848327	         -0.19272971	          0.00000000	         -0.02143286	         -0.00000032	          0.00000234	          0.00000009	          0.00000000	          0.00000000	          0.00000000	          0.00000000	          0.15938884	          0.00000000	          0.00000000	         -0.00000003	          0.00000000	
          1.36300000	        -25.47578488	        229.98216302	        -21.12144606	         -0.20818447	          0.00000000	         -0.02326754	         -0.00000033	          0.00000238	          0.00000009	          0.00000000	          0.00000000	          0.00000000	          0.00000000	          0.16648390	          0.00000000	          0.00000000	         -0.00000003	          0.00000000	
          1.36400000	        -27.35190512	        241.46379677	        -21.99150920	         -0.22312940	          0.00000000	         -0.02504639	         -0.00000034	          0.00000242	          0.00000009	          0.00000000	          0.00000000	          0.00000000	          0.00000000	          0.17351312	          0.00000000	          0.00000000	         -0.00000003	          0.00000000	
          1.36500000	        -29.28525113	        252.90926238	        -22.84484157	         -0.23754888	          0.00000000	         -0.02676799	         -0.00000035	          0.00000245	          0.00000009	          0.00000000	          0.00000000	          0.00000000	          0.00000000	          0.18044517	          0.00000000	          0.00000000	         -0.00000003	          0.00000000	
          1.36600000	        -31.27339416	        264.29971589	        -23.67750376	         -0.25143056	          0.00000000	         -0.02843132	         -0.00000035	          0.00000247	          0.00000009	          0.00000000	          0.00000000	          0.00000000	          0.00000000	          0.18724539	          0.00000000	          0.00000000	         -0.00000003	          0.00000000	
          1.36700000	        -33.31345332	        275.61821624	        -24.48550078	         -0.26476518	          0.00000000	         -0.03003572	         -0.00000036	          0.00000249	          0.00000009	          0.00000000	          0.00000000	          0.00000000	          0.00000000	          0.19387534	          0.00000000	          0.00000000	         -0.00000002	          0.00000000	
